<svg width="31" height="31" viewBox="0 0 31 31" fill="none" xmlns="http://www.w3.org/2000/svg">
<g filter="url(#filter0_d_5_250)">
<path d="M14.465 19.55H16.4775V18.1125C17.4358 17.94 18.26 17.5663 18.95 16.9913C19.64 16.4163 19.985 15.5633 19.985 14.4325C19.985 13.6275 19.755 12.8896 19.295 12.2188C18.835 11.5479 17.915 10.9633 16.535 10.465C15.385 10.0817 14.5896 9.74625 14.1487 9.45875C13.7079 9.17125 13.4875 8.77833 13.4875 8.28C13.4875 7.78167 13.6648 7.38875 14.0194 7.10125C14.374 6.81375 14.8867 6.67 15.5575 6.67C16.1708 6.67 16.65 6.81854 16.995 7.11562C17.34 7.41271 17.5892 7.78167 17.7425 8.2225L19.5825 7.475C19.3717 6.80417 18.9835 6.21958 18.4181 5.72125C17.8527 5.22292 17.225 4.945 16.535 4.8875V3.45H14.5225V4.8875C13.5642 5.09833 12.8167 5.52 12.28 6.1525C11.7433 6.785 11.475 7.49417 11.475 8.28C11.475 9.18083 11.7385 9.90917 12.2656 10.465C12.7927 11.0208 13.6217 11.5 14.7525 11.9025C15.96 12.3433 16.7985 12.7363 17.2681 13.0813C17.7377 13.4263 17.9725 13.8767 17.9725 14.4325C17.9725 15.065 17.7473 15.5298 17.2969 15.8269C16.8465 16.124 16.305 16.2725 15.6725 16.2725C15.04 16.2725 14.4794 16.076 13.9906 15.6831C13.5019 15.2902 13.1425 14.7008 12.9125 13.915L11.015 14.6625C11.2833 15.5825 11.7002 16.3252 12.2656 16.8906C12.831 17.456 13.5642 17.8442 14.465 18.055V19.55ZM15.5 23C13.9092 23 12.4142 22.6981 11.015 22.0944C9.61583 21.4906 8.39875 20.6712 7.36375 19.6362C6.32875 18.6012 5.50938 17.3842 4.90562 15.985C4.30187 14.5858 4 13.0908 4 11.5C4 9.90917 4.30187 8.41417 4.90562 7.015C5.50938 5.61583 6.32875 4.39875 7.36375 3.36375C8.39875 2.32875 9.61583 1.50938 11.015 0.905625C12.4142 0.301875 13.9092 0 15.5 0C17.0908 0 18.5858 0.301875 19.985 0.905625C21.3842 1.50938 22.6012 2.32875 23.6362 3.36375C24.6712 4.39875 25.4906 5.61583 26.0944 7.015C26.6981 8.41417 27 9.90917 27 11.5C27 13.0908 26.6981 14.5858 26.0944 15.985C25.4906 17.3842 24.6712 18.6012 23.6362 19.6362C22.6012 20.6712 21.3842 21.4906 19.985 22.0944C18.5858 22.6981 17.0908 23 15.5 23Z" fill="white"/>
<path d="M13.965 19.55V20.05H14.465H16.4775H16.9775V19.55V18.5172C17.8436 18.3042 18.6106 17.9249 19.2701 17.3754C20.1027 16.6815 20.485 15.67 20.485 14.4325C20.485 13.5254 20.2238 12.6891 19.7074 11.936C19.1569 11.1333 18.1141 10.5036 16.7048 9.99472L16.7049 9.99458L16.6931 9.99066C15.5449 9.60793 14.804 9.28913 14.4219 9.03994C14.1131 8.83854 13.9875 8.59831 13.9875 8.28C13.9875 7.91665 14.1085 7.67269 14.3343 7.48963C14.5664 7.30145 14.9492 7.17 15.5575 7.17C16.093 7.17 16.4418 7.29912 16.6687 7.49451C16.9453 7.73266 17.1451 8.02688 17.2703 8.38676L17.4431 8.8838L17.9307 8.68573L19.7707 7.93823L20.1977 7.76477L20.0595 7.32509C19.8193 6.56097 19.3775 5.90029 18.7487 5.34615C18.2336 4.89211 17.6608 4.59156 17.035 4.45708V3.45V2.95H16.535H14.5225H14.0225V3.45V4.49954C13.1554 4.75383 12.439 5.19228 11.8987 5.82901C11.29 6.54642 10.975 7.36872 10.975 8.28C10.975 9.28478 11.2724 10.1442 11.9028 10.809C12.5059 11.445 13.4167 11.9576 14.5829 12.3729C15.7852 12.8119 16.5645 13.1847 16.9721 13.4842C17.3207 13.7403 17.4725 14.0446 17.4725 14.4325C17.4725 14.9305 17.3058 15.222 17.0216 15.4095C16.6661 15.6439 16.2243 15.7725 15.6725 15.7725C15.1529 15.7725 14.703 15.6143 14.3039 15.2934C13.916 14.9816 13.6023 14.492 13.3924 13.7746L13.2386 13.2491L12.7292 13.4498L10.8317 14.1973L10.4073 14.3645L10.535 14.8025C10.8222 15.7872 11.2765 16.6086 11.9121 17.2442C12.4669 17.799 13.1563 18.1941 13.965 18.4386V19.55ZM15.5 22.5C13.9742 22.5 12.547 22.2109 11.2131 21.6353C9.86953 21.0555 8.70579 20.2712 7.7173 19.2827C6.72882 18.2942 5.94447 17.1305 5.36471 15.7869C4.78914 14.453 4.5 13.0258 4.5 11.5C4.5 9.97424 4.78914 8.54696 5.36471 7.2131C5.94447 5.86953 6.72882 4.70579 7.7173 3.7173C8.70579 2.72882 9.86953 1.94447 11.2131 1.36471C12.547 0.789136 13.9742 0.5 15.5 0.5C17.0258 0.5 18.453 0.789136 19.7869 1.36471C21.1305 1.94447 22.2942 2.72882 23.2827 3.7173C24.2712 4.70579 25.0555 5.86953 25.6353 7.2131C26.2109 8.54696 26.5 9.97424 26.5 11.5C26.5 13.0258 26.2109 14.453 25.6353 15.7869C25.0555 17.1305 24.2712 18.2942 23.2827 19.2827C22.2942 20.2712 21.1305 21.0555 19.7869 21.6353C18.453 22.2109 17.0258 22.5 15.5 22.5Z" stroke="black"/>
</g>
<defs>
<filter id="filter0_d_5_250" x="0" y="0" width="31" height="31" filterUnits="userSpaceOnUse" color-interpolation-filters="sRGB">
<feFlood flood-opacity="0" result="BackgroundImageFix"/>
<feColorMatrix in="SourceAlpha" type="matrix" values="0 0 0 0 0 0 0 0 0 0 0 0 0 0 0 0 0 0 127 0" result="hardAlpha"/>
<feOffset dy="4"/>
<feGaussianBlur stdDeviation="2"/>
<feComposite in2="hardAlpha" operator="out"/>
<feColorMatrix type="matrix" values="0 0 0 0 0 0 0 0 0 0 0 0 0 0 0 0 0 0 0.25 0"/>
<feBlend mode="normal" in2="BackgroundImageFix" result="effect1_dropShadow_5_250"/>
<feBlend mode="normal" in="SourceGraphic" in2="effect1_dropShadow_5_250" result="shape"/>
</filter>
</defs>
</svg>
